<?xml version="1.0" encoding="UTF-8" standalone="no"?>
<!-- Created with Inkscape (http://www.inkscape.org/) -->

<svg
   xmlns:dc="http://purl.org/dc/elements/1.1/"
   xmlns:cc="http://creativecommons.org/ns#"
   xmlns:rdf="http://www.w3.org/1999/02/22-rdf-syntax-ns#"
   xmlns:svg="http://www.w3.org/2000/svg"
   xmlns="http://www.w3.org/2000/svg"
   xmlns:sodipodi="http://sodipodi.sourceforge.net/DTD/sodipodi-0.dtd"
   xmlns:inkscape="http://www.inkscape.org/namespaces/inkscape"
   id="svg4198"
   version="1.1"
   inkscape:version="0.91 r13725"
   width="549.375"
   height="283.125"
   viewBox="0 0 549.375 283.125"
   sodipodi:docname="SchoolOfFish.svg">
  <metadata
     id="metadata4204">
    <rdf:RDF>
      <cc:Work
         rdf:about="">
        <dc:format>image/svg+xml</dc:format>
        <dc:type
           rdf:resource="http://purl.org/dc/dcmitype/StillImage" />
        <dc:title></dc:title>
      </cc:Work>
    </rdf:RDF>
  </metadata>
  <defs
     id="defs4202" />
  <sodipodi:namedview
     pagecolor="#ffffff"
     bordercolor="#666666"
     borderopacity="1"
     objecttolerance="10"
     gridtolerance="10"
     guidetolerance="10"
     inkscape:pageopacity="0"
     inkscape:pageshadow="2"
     inkscape:window-width="1600"
     inkscape:window-height="837"
     id="namedview4200"
     showgrid="false"
     inkscape:zoom="2.0095563"
     inkscape:cx="274.6875"
     inkscape:cy="141.5625"
     inkscape:window-x="-8"
     inkscape:window-y="-8"
     inkscape:window-maximized="1"
     inkscape:current-layer="svg4198" />
  <path
     style="fill:#000000"
     d="M 31.567293,281.38792 C 34.175977,271.4123 24.921184,266.16313 11.25,269.86429 2.6123145,272.20274 1.9771451,271.68415 6.0576368,265.62497 11.411964,257.67425 23.945817,251.26638 35.625,250.50878 c 4.680764,-0.30361 7.728112,-0.99969 9.115845,-2.08224 1.146527,-0.89438 4.464112,-2.59193 7.372411,-3.77232 l 5.287816,-2.14617 -2.631406,-1.37874 -2.631407,-1.37873 3.008161,-2.68779 c 1.709481,-1.52742 4.114802,-2.70386 5.571496,-2.72502 6.688959,-0.0971 12.7679,-0.90468 13.300788,-1.7669 0.641944,-1.0387 7.927424,-3.82087 10.005415,-3.82087 0.708609,0 2.131817,-0.84343 3.162683,-1.8743 1.738006,-1.73801 2.79468,-1.84173 14.531248,-1.42645 11.61177,0.41088 16.39702,-0.3868 10.07882,-1.6801 -4.01729,-0.82231 -6.69012,-3.18275 -4.92187,-4.34662 2.15943,-1.42133 8.48723,-0.11286 12.65625,2.61707 2.16666,1.41876 6.35597,2.90912 9.92199,3.52978 31.6996,5.51724 38.75631,14.04784 19.45847,23.52261 l -13.74454,6.74824 -4.94616,7.08416 c -5.28406,7.56812 -7.59653,8.93416 -15.14289,8.94538 -5.2869,0.007 -4.43371,-1.98051 3.0414,-7.08803 3.60635,-2.46411 6.45401,-4.55899 6.32812,-4.65528 -0.12589,-0.0963 -2.76014,0.13969 -5.85389,0.52441 -5.8226,0.72407 -13.02686,0.58771 -26.71875,-0.50572 -7.683337,-0.61358 -8.165234,-0.53244 -13.454574,2.26549 -5.603069,2.96388 -12.305212,3.90375 -12.998835,1.82288 -0.268856,-0.80657 -1.956083,-0.77776 -6.682769,0.1141 -7.72545,1.4577 -8.422748,0.93388 -4.35021,-3.26791 l 3.166701,-3.26721 -6.151227,0 c -8.632078,0 -9.863131,1.20528 -14.778304,14.46884 -3.399861,9.17451 -6.567511,14.87709 -5.058489,9.10658 z M 38.4375,262.30473 c 0,-0.42276 1.371094,-2.05288 3.046875,-3.62248 L 44.53125,255.82842 56.25,256.416 c 6.445312,0.32317 13.828125,0.7232 16.40625,0.88898 2.578125,0.16576 10.382812,0.58504 17.34375,0.93172 6.960937,0.34668 13.98597,0.83438 15.61118,1.08378 4.97473,0.7634 20.21105,-1.2615 25.17269,-3.34544 l 4.69012,-1.9699 1.65132,-6.76819 c 0.90822,-3.72252 1.68665,-8.87758 1.72985,-11.4557 l 0.0786,-4.6875 1.2566,6.09375 c 0.69112,3.35156 1.2826,7.67578 1.3144,9.60937 0.0318,1.9336 0.44208,3.51563 0.91175,3.51563 2.12944,0 18.83356,-8.82979 18.83356,-9.95541 0,-3.88369 -25.14789,-12.57546 -37.96875,-13.123 l -9.375,-0.40037 3.90656,1.66126 c 2.1486,0.9137 4.14461,1.89947 4.43558,2.1906 0.29097,0.29113 -6.08207,1.46166 -14.1623,2.60116 -12.165432,1.71561 -17.530263,3.03497 -31.203442,7.67378 -16.573949,5.62295 -20.196522,6.5931 -16.063986,4.30206 6.307095,-3.49659 -2.123091,-1.91345 -9.837654,1.84747 -4.581322,2.23343 -9.739405,4.07672 -11.470686,4.09917 -10.662276,0.13821 -25.837932,7.2475 -31.9536333,14.9692 l -2.8852329,3.6429 4.3583033,-1.31165 c 2.6290749,-0.79124 6.0960089,-2.93708 8.7379759,-5.40833 4.54981,-4.25581 8.314074,-6.70702 9.09719,-5.92391 0.249887,0.24988 -1.422985,1.74597 -3.717493,3.32464 -4.674134,3.21586 -6.257324,5.74793 -3.593958,5.74793 0.925186,0 2.704914,-1.09477 3.954952,-2.43282 2.707007,-2.89762 7.429044,-5.53781 7.429044,-4.15376 0,0.52887 -0.389507,0.96158 -0.86557,0.96158 -1.504032,0 -6.663379,4.81971 -6.112867,5.71045 0.289627,0.46863 1.314826,0.85205 2.278222,0.85205 2.186941,0 5.591161,4.22035 6.312186,7.82548 0.490647,2.45323 5.888029,-9.19604 5.888029,-12.70825 z M 63.75,250.47603 c 0.773437,-0.4754 5.414062,-1.13586 10.3125,-1.46769 18.443733,-1.24941 37.27062,-3.50231 44.0625,-5.27268 11.67406,-3.04298 11.89155,-3.08424 10.3125,-1.95636 -4.60927,3.29229 -21.89918,6.5644 -42.1875,7.98396 -20.359651,1.42454 -23.837237,1.5347 -22.5,0.71277 z m 79.375,-3.60103 c -1.36276,-1.36275 -0.44288,-4.62092 1.75663,-6.22199 4.10731,-2.98979 5.65356,0.0344 2.23783,4.37681 -1.98831,2.52772 -2.89369,2.94595 -3.99446,1.84518 z m 4.03269,-5.41356 c -0.0164,-0.54598 -0.64922,-0.17377 -1.40625,0.82712 -0.75704,1.00089 -1.36302,2.26652 -1.34663,2.8125 0.0164,0.54598 0.64922,0.17377 1.40625,-0.82712 0.75704,-1.00089 1.36302,-2.26652 1.34663,-2.8125 z m -25.47887,27.52897 c 1.59286,-0.55528 4.07292,-2.55918 5.51125,-4.45313 l 2.61514,-3.44353 -3.73073,2.91123 c -3.74328,2.92101 -7.94948,5.43964 -7.94948,4.76005 0,-0.78883 11.74401,-9.53007 12.47949,-9.28867 0.43169,0.14167 0.50238,-0.19949 0.1571,-0.75816 -0.43791,-0.70856 -1.13196,-0.64471 -2.29491,0.21114 -0.91692,0.67481 -4.22555,3.01784 -7.35251,5.20674 -8.14028,5.69827 -7.89541,7.80352 0.56465,4.85433 z m -61.974226,-6.5662 c 1.451536,-0.5573 4.586237,-1.1301 6.966003,-1.27287 2.379765,-0.14278 4.805546,-0.55545 5.390625,-0.91704 0.585077,-0.36161 1.063778,-0.19709 1.063778,0.36558 0,0.56267 -0.949219,1.40458 -2.109375,1.87091 l -2.109375,0.84786 2.146723,0.0594 c 2.000622,0.0554 9.572027,-3.22163 9.572027,-4.14291 0,-0.22782 -4.41102,-0.39375 -9.802267,-0.36873 -5.391246,0.025 -10.178251,-0.18688 -10.637789,-0.4709 -0.459537,-0.28401 -2.033696,0.73424 -3.498131,2.26279 -2.91846,3.04621 -1.887771,3.64933 3.017781,1.76587 z M 139.6216,249.14062 c -0.0552,-2.5533 -0.1964,-2.74314 -0.8716,-1.17187 -1.11297,2.59003 -1.11297,4.21875 0,4.21875 0.51562,0 0.90785,-1.37109 0.8716,-3.04688 z M 77.8125,238.89385 c 13.519799,-4.72324 14.952973,-5.076 28.125,-6.92243 12.67684,-1.77702 12.74459,-1.80802 6.75862,-3.09177 -9.26164,-1.98628 -24.57112,-2.46778 -24.57112,-0.77279 0,1.33097 -7.418667,4.39314 -10.643213,4.39314 -0.510344,0 -1.598222,0.60664 -2.417506,1.34808 -0.885208,0.8011 -4.483955,1.57536 -8.869483,1.90826 -7.028983,0.53355 -10.904566,1.64119 -10.86349,3.10477 0.03158,1.12537 8.793322,4.75124 10.293692,4.25984 0.773438,-0.25332 6.257813,-2.1555 12.1875,-4.2271 z m 43.125,-14.40843 c 0,-0.9224 -7.90883,-4.1312 -10.23438,-4.15233 -3.24731,-0.0295 -1.66273,1.14396 3.96238,2.93437 5.63029,1.79206 6.272,1.91667 6.272,1.21796 z m 184.41995,-4.90099 c -3.45281,-2.13633 -3.00024,-4.90445 1.13967,-6.97088 1.99726,-0.99693 2.70777,-1.75128 1.875,-1.99068 -6.20108,-1.78275 -14.73205,-2.86627 -20.794,-2.64105 -4.1589,0.1545 -7.26562,-0.11134 -7.26562,-0.62174 0,-0.4904 -2.74102,-1.06619 -6.09114,-1.27951 -8.03794,-0.51181 -9.39103,-1.8807 -4.38392,-4.43514 2.09579,-1.06919 4.03119,-1.58693 4.30089,-1.15055 0.26971,0.43639 -0.65655,1.32536 -2.05836,1.97548 l -2.54872,1.18202 2.34375,0.90014 c 1.28906,0.49508 3.9963,0.6414 6.01609,0.32518 2.28241,-0.35736 3.91636,-0.18014 4.31705,0.46821 0.3546,0.57375 1.97427,0.90641 3.59924,0.73926 3.51585,-0.36166 -21.97215,-12.02267 -26.27849,-12.02267 -4.57741,0 -4.94582,7.30612 -0.56996,11.30285 3.38937,3.09572 2.29023,3.78915 -1.40225,0.88465 -1.31101,-1.03125 -2.739,-1.87788 -3.1733,-1.8814 -3.4967,-0.0284 -8.61747,-14.57177 -10.11887,-28.73836 -0.17274,-1.62993 -0.76374,-4.37212 -1.31334,-6.09375 -1.68495,-5.27808 -1.75706,-18.59899 -0.10069,-18.59899 0.5491,0 0.87925,1.63073 0.75534,3.73083 -0.28317,4.79921 6.19124,17.90738 11.31704,22.91259 4.60712,4.49874 8.90448,5.1541 18.87064,2.87789 l 7.37847,-1.68519 -2.02697,-2.84662 c -1.11483,-1.56563 -2.32301,-4.77017 -2.68486,-7.12118 -0.36183,-2.35102 -0.95791,-5.22379 -1.3246,-6.38395 -0.92324,-2.92094 1.82232,-2.81905 6.31584,0.23438 3.64661,2.47793 6.36112,3.03466 6.36112,1.30462 0,-0.60603 0.87918,-0.82334 2.10937,-0.52138 1.16016,0.28477 5.71501,0.59953 10.1219,0.69948 16.41459,0.37228 20.8435,1.48922 39.79998,10.0372 20.12164,9.07337 33.75971,16.59572 33.63925,18.5544 -0.58474,9.50742 -7.04212,13.85175 -25.13192,16.908 -13.72256,2.31841 -20.21688,-8.45213 -12.02296,-19.93954 2.44388,-3.42618 2.51544,-3.72198 0.9375,-3.87568 -14.81568,-1.44316 -16.17782,-1.37811 -26.02765,1.24309 -13.08645,3.48253 -19.73822,3.35168 -40.139,-0.78961 -14.99559,-3.04405 -19.83919,-4.40183 -15.70265,-4.40183 1.15908,0 0.2011,-1.45669 -3.23681,-4.92188 -2.68573,-2.70703 -5.69733,-6.60937 -6.69245,-8.67187 l -1.80931,-3.75 0.60993,3.28125 c 0.33546,1.80469 1.39433,5.09036 2.35304,7.3015 1.33211,3.07239 1.5241,4.59623 0.81429,6.46317 -1.02912,2.7068 0.52401,9.14171 1.98806,8.23687 0.45895,-0.28365 1.09565,0.66169 1.4149,2.10074 0.31924,1.43906 1.01961,4.05569 1.5564,5.81474 l 0.97597,3.19826 1.37385,-4.13576 c 0.75562,-2.27467 1.64964,-4.42418 1.98671,-4.77669 1.29591,-1.35527 13.07113,1.76453 17.91934,4.74767 14.5841,8.97368 25.13605,11.84042 43.39663,11.78991 14.10688,-0.039 18.44514,0.60466 11.58192,1.7184 -1.75104,0.28416 -5.65338,2.39697 -8.67188,4.69514 -7.98206,6.07725 -11.53906,7.13025 -15.59946,4.61798 z m 9.22266,-2.10808 c 2.15716,-1.04427 4.71613,-2.80811 5.68662,-3.91966 1.35288,-1.54953 0.30276,-1.21336 -4.50141,1.44101 -3.44627,1.9041 -6.50021,3.08294 -6.78655,2.61963 -0.68265,-1.10454 0.98123,-2.42355 6.07519,-4.81602 4.03799,-1.89651 4.06489,-1.93691 0.88354,-1.32677 -7.5041,1.43915 -11.95589,4.9751 -8.67188,6.88787 2.28953,1.33352 2.87625,1.26244 7.31449,-0.88606 z m 24.62863,-11.92948 c -1.92172,-3.67352 -1.86891,-11.6992 0.0899,-13.658 0.5896,-0.5896 0.74563,0.59249 0.44229,3.351 -1.69215,15.38812 27.13123,16.85134 31.20043,1.58388 2.5123,-9.42606 -30.96282,-23.29949 -53.5214,-22.18143 -14.83822,0.73542 -50.4068,7.73045 -47.72764,9.38627 7.09762,4.38657 30.00435,4.98648 42.49519,1.11292 8.6308,-2.67651 20.19553,-2.8824 25.44695,-0.45304 l 2.47821,1.14645 -2.40007,5.24247 c -2.78463,6.08242 -3.09915,12.08289 -0.81598,15.56745 2.61788,3.99539 4.50727,3.09818 2.31213,-1.09797 z m 14.27158,-7.21402 c -1.92705,-2.32195 -0.8443,-5.6766 1.83218,-5.6766 1.73354,0 2.42351,0.56262 2.65009,2.16097 0.29715,2.0961 -1.21238,4.87028 -2.65009,4.87028 -0.38935,0 -1.21383,-0.60959 -1.83218,-1.35465 z M 246.88601,178.55332 c -0.30533,-0.79568 -0.75621,-1.24562 -1.00195,-0.99988 -0.24575,0.24575 -0.16873,0.89676 0.17114,1.44669 0.92442,1.49574 1.46473,1.20516 0.83081,-0.44681 z M 288.75,176.25 c 1.21436,-0.78478 1.19169,-0.91074 -0.16613,-0.92315 -2.12152,-0.0194 -7.33387,-6.4878 -7.33387,-9.10122 0,-1.75532 -2.32319,-4.03813 -4.10955,-4.03813 -0.26556,0 1.18328,2.94019 3.21961,6.53375 4.64347,8.19439 4.54253,11.08858 -0.12004,3.44208 -1.26154,-2.06889 -1.79656,-2.444 -1.79901,-1.26135 -0.008,4.17182 6.72422,7.66467 10.30899,5.34802 z m 3.51562,-2.41122 c -1.41796,-0.76927 -2.57812,-1.80706 -2.57812,-2.30622 0,-1.27706 0.64479,-1.14238 3.50956,0.73306 2.09764,1.37324 4.04045,1.57 11.92014,1.20727 5.17773,-0.23835 13.6328,-0.39427 18.78905,-0.34648 6.91448,0.0641 8.75987,-0.14918 7.03125,-0.81253 -5.51106,-2.11486 -16.98102,-4.46635 -24.375,-4.99717 -4.38281,-0.31464 -10.02638,-0.97169 -12.54127,-1.46011 -3.06273,-0.5948 -4.95975,-0.56663 -5.74533,0.0853 -0.79267,0.65785 -1.96951,0.67046 -3.63061,0.0389 -1.35178,-0.51395 -2.45779,-0.67828 -2.45779,-0.36518 0,1.8291 4.21117,6.87738 6.80272,8.15495 3.83859,1.89236 6.74958,1.95292 3.2754,0.0682 z m 189.56781,7.51738 c -1.20905,-1.45681 0.96567,-6.2942 3.55718,-7.91248 1.23787,-0.77301 -0.43071,-0.93739 -6.79686,-0.66961 -8.5798,0.36089 -15.63096,-0.83964 -19.51179,-3.32208 -1.12789,-0.72147 -3.31634,-1.21131 -4.86321,-1.08853 -9.31901,0.73965 -11.15178,0.6812 -11.50112,-0.36683 -0.25011,-0.7503 -2.94813,-1.12163 -8.14971,-1.12163 -9.6918,0 -11.5148,-1.3418 -7.13046,-5.24826 4.12515,-3.67553 2.38064,-6.28346 -7.97517,-11.9224 -0.55356,-0.30142 -3.08481,0.95702 -5.625,2.79653 -9.89687,7.16695 -19.62403,9.61761 -28.90613,7.28262 l -2.72508,-0.68552 3.66258,-3.25064 c 10.03512,-8.90644 14.32603,-13.30948 13.48005,-13.83233 -2.9417,-1.81807 -11.22371,-17.77395 -11.22371,-21.62327 0,-1.30238 0.15495,-1.3082 1.41014,-0.0531 0.77558,0.77558 7.42011,4.45565 14.76563,8.17795 7.34551,3.72228 14.74106,7.8196 16.43454,9.10514 2.59425,1.96932 3.43549,2.17494 5.34278,1.30592 1.24505,-0.56729 5.916,-1.54235 10.3799,-2.16682 7.34509,-1.02753 7.90631,-1.24626 5.90722,-2.30228 -2.74239,-1.44867 -5.90794,-6.58979 -4.5676,-7.41817 0.52382,-0.32373 0.95239,-0.0902 0.95239,0.51902 0,0.8096 0.33206,0.83203 1.23414,0.0833 0.87675,-0.72764 2.26151,-0.74058 4.78191,-0.0446 3.58791,0.99066 6.93913,0.75843 16.70912,-1.15796 7.28083,-1.42812 14.61807,-0.65868 16.55188,1.73575 1.11905,1.38559 3.60184,2.16207 9.69636,3.03248 4.50569,0.64349 9.77912,1.98512 11.71875,2.98139 1.93963,0.99628 7.32346,2.67615 11.96409,3.73304 4.64062,1.05689 11.71177,2.66319 15.71365,3.56953 12.42271,2.81353 26.39902,14.27334 21.27207,17.44197 -0.66293,0.40971 -0.5956,1.07435 0.2068,2.04119 1.33655,1.61043 -2.18935,5.11187 -6.71233,6.66578 -14.28565,4.90798 -24.83798,6.94791 -33.94328,6.56177 -4.8337,-0.20499 -5.71315,0.075 -9.30751,2.96354 -4.71028,3.78528 -15.00694,6.35267 -16.80222,4.18949 z m 15.51032,-6.9251 c 0.51562,0.0157 -0.96094,1.04523 -3.28125,2.28769 -2.32031,1.24246 -3.66368,2.27809 -2.98524,2.30138 3.23818,0.11122 11.23465,-6.03195 8.97861,-6.89767 -0.79294,-0.30428 -2.14942,-0.20352 -3.01441,0.22391 -0.86499,0.42743 -3.21471,0.86504 -5.22161,0.97248 -4.36441,0.23364 -6.73827,1.38057 -8.09172,3.90951 -1.80351,3.36989 -0.16276,3.44384 6.30812,0.28431 3.5035,-1.71064 6.79188,-3.09737 7.3075,-3.08161 z m 20.20911,-2.77219 c 1.36989,-0.54717 1.68974,-0.93891 0.79557,-0.97444 -5.40153,-0.21466 -6.59395,-17.02142 -1.56731,-22.09068 0.61518,-0.6204 0.68647,-0.14474 0.21076,1.40625 -3.59266,11.71341 -1.55392,20.52178 4.47095,19.31681 1.42982,-0.28596 2.59967,-0.10861 2.59967,0.39413 0,0.50273 -0.70313,0.91406 -1.5625,0.91406 -0.85937,0 -1.36392,0.19858 -1.12121,0.44129 0.81576,0.81576 9.65894,-1.20144 16.27746,-3.71302 6.32049,-2.39849 10.36562,-4.95641 9.38649,-5.93552 -0.25781,-0.25782 -1.2732,0.25926 -2.25642,1.14907 -0.98322,0.8898 -2.02962,1.22636 -2.32533,0.74789 -0.2957,-0.47846 1.00085,-2.26993 2.88122,-3.98103 l 3.41887,-3.1111 -3.66959,-3.1721 c -5.68091,-4.91075 -12.84694,-8.62699 -19.3337,-10.02627 -12.86722,-2.77563 -23.58423,-5.30281 -24.26078,-5.72093 -0.39152,-0.24198 -0.85361,-0.0147 -1.02686,0.505 -0.21119,0.63359 -1.39396,0.63551 -3.5895,0.006 -1.80099,-0.51652 -7.07418,-0.93634 -11.71821,-0.93293 -4.64403,0.004 -11.71322,-0.49146 -15.70931,-1.0997 -7.52565,-1.14548 -8.53635,-1.06313 -31.64063,2.57805 -4.89844,0.77199 -9.92241,1.82991 -11.16437,2.35095 -1.87628,0.78716 -3.0652,0.43942 -7.03125,-2.05657 -3.999,-2.51672 -21.33735,-11.65028 -24.46063,-12.88546 -0.51562,-0.20392 1.15601,1.78975 3.71476,4.43039 2.55874,2.64063 4.17879,4.80114 3.60012,4.80114 -0.97833,0 -5.9336,-4.84254 -10.55255,-10.3125 l -1.97912,-2.34375 1.4818,3.73849 c 1.81375,4.576 6.38172,11.80293 8.90196,14.08371 3.02596,2.73846 2.15297,0.85959 -2.35447,-5.0673 -5.95319,-7.82793 -5.23816,-8.00526 1.87351,-0.46463 6.89513,7.31104 6.64385,6.91852 4.45461,6.9583 -1.48974,0.0271 -1.47448,0.15551 0.16594,1.39656 0.99361,0.75172 1.53115,1.64216 1.19454,1.97878 -0.33662,0.33662 -1.24079,0.0902 -2.00928,-0.54757 C 402.51681,143.48122 390,152.49945 390,154.25339 c 0,0.91836 13.79421,-0.73297 16.38245,-1.96117 1.85465,-0.8801 3.63077,-1.34151 3.94691,-1.02536 1.53784,1.53784 -7.9629,4.3178 -14.82395,4.33755 -7.51062,0.0217 -13.41048,2.67595 -6.5577,2.95028 1.61001,0.0644 3.45463,0.1853 4.09916,0.26855 5.26966,0.68067 13.58953,-2.66967 21.08692,-8.49152 6.25914,-4.86033 6.10983,-4.84196 9.90143,-1.21874 9.21909,8.80965 35.89494,20.22975 49.40228,21.14942 5.27979,0.35949 6.63228,0.22456 5.42956,-0.54163 -3.52989,-2.24873 1.05861,-5.90739 8.87966,-7.08023 3.03609,-0.45529 4.44078,-0.33571 4.44078,0.37802 0,0.57417 -0.31641,0.99398 -0.70313,0.93292 -3.86599,-0.61042 -7.95393,0.41423 -10.26022,2.57175 -1.44672,1.3534 -1.99198,2.01743 -1.21168,1.47563 2.52977,-1.75658 10.33497,-3.33892 11.36906,-2.30483 0.63803,0.63803 -0.7939,1.16482 -4.38634,1.61366 -3.25143,0.40624 -4.99647,1.00353 -4.47002,1.52999 1.11749,1.11748 6.79305,1.34149 13.88108,0.54788 3.09375,-0.34639 5.03379,-0.36371 4.3112,-0.0385 -4.29425,1.93271 12.13586,4.18885 16.83541,2.3118 z m 9.37978,-13.16373 c -3.56697,-3.56697 -1.58862,-6.61746 2.85492,-4.40212 1.4542,0.725 2.24369,1.92905 2.24369,3.42183 0,3.00195 -2.58076,3.49814 -5.09861,0.98029 z m -94.07749,-12.96267 c -9.914,-1.99842 -7.49851,-2.97385 3.14522,-1.27011 8.07075,1.29187 9.46922,1.24511 24.6374,-0.82389 23.63205,-3.2235 41.12584,-2.53395 49.5068,1.9514 3.7822,2.02417 0.80951,1.84386 -8.19797,-0.49725 -11.53024,-2.9968 -17.18257,-3.00597 -37.89352,-0.0615 -18.75332,2.6662 -21.17966,2.72073 -31.19793,0.7013 z m 17.6136,21.34253 c 1.54687,-0.39361 2.17969,-0.76762 1.40625,-0.83112 -0.77344,-0.0635 -5.61157,-2.01185 -10.75139,-4.32967 -10.14881,-4.57662 -10.22511,-4.6039 -9.47296,-3.3869 0.28121,0.45502 -0.31288,1.87509 -1.32022,3.15571 -2.48234,3.15578 -1.79984,3.51698 6.64549,3.51698 6.69062,0 10.05414,1.02712 7.17055,2.18966 -1.82645,0.73636 3.16892,0.48774 6.32228,-0.31466 z m 48.64566,-30.94809 c -0.52146,-0.52146 -5.35193,-1.78048 -10.73438,-2.79781 -7.42617,-1.40363 -10.09647,-2.30544 -11.0725,-3.73941 -1.5226,-2.23696 -3.96358,-2.35251 -16.68127,-0.78959 l -8.9517,1.1001 3.1471,1.59419 c 3.745,1.89708 9.56094,2.63413 28.72494,3.6403 7.88032,0.41374 14.59516,1.01957 14.92188,1.34628 0.32671,0.32672 0.81902,0.59403 1.09402,0.59403 0.275,0 0.0733,-0.42665 -0.44809,-0.94809 z M 453.75,133.97258 c 0.77344,-0.0636 -0.39915,-0.47129 -2.60574,-0.90613 -2.2066,-0.43483 -5.28948,-1.70026 -6.85086,-2.81205 -2.78787,-1.98514 -4.46101,-1.98282 -3.23278,0.005 1.12932,1.82728 7.49637,4.71584 9.40813,4.26822 1.03125,-0.24145 2.50781,-0.49099 3.28125,-0.55453 z M 450,130.3125 c -0.77344,-0.49984 -2.03906,-0.90878 -2.8125,-0.90878 -1.25,0 -1.25,0.10096 0,0.90878 0.77344,0.49984 2.03906,0.90878 2.8125,0.90878 1.25,0 1.25,-0.10096 0,-0.90878 z M 213.63898,84.707845 c -0.061,-0.440877 -0.0757,-1.073814 -0.0327,-1.406525 0.043,-0.332712 -1.48902,-0.896087 -3.4046,-1.251944 -1.9156,-0.355859 -6.57749,-1.845454 -10.35975,-3.310214 -3.78228,-1.464759 -7.77252,-2.490711 -8.86721,-2.279894 -4.40604,0.848528 -16.30571,0.06514 -17.53719,-1.154525 -0.25781,-0.255339 0.71493,-1.48305 2.16165,-2.728248 l 2.6304,-2.263995 -2.76662,0 c -1.52164,0 -5.74078,1.265625 -9.37589,2.8125 -9.58958,4.080731 -11.01032,3.392935 -5.73645,-2.777087 3.96058,-4.633579 1.84616,-10.292979 -6.11397,-16.364464 -4.56509,-3.48197 -4.16579,-4.054008 2.29786,-3.291882 6.28898,0.74153 11.57785,3.488471 17.56322,9.122006 2.1678,2.040374 4.06623,3.585615 4.21875,3.433871 0.15251,-0.151745 2.17573,-0.535789 4.49604,-0.853432 9.44435,-1.292899 9.70785,-1.409828 7.83663,-3.477506 -3.21385,-3.551271 10.00009,-4.176119 25.8742,-1.223515 2.28511,0.425033 2.2771,0.401308 -0.1952,-0.578008 -1.41797,-0.561678 -2.57813,-1.453088 -2.57813,-1.98091 0,-0.527823 0.66731,-0.703604 1.48293,-0.390625 0.8156,0.312979 1.83798,0.569052 2.27194,0.569052 0.43395,0 2.65897,1.427374 4.94448,3.171942 3.06425,2.338991 6.6357,3.796032 13.60039,5.548525 18.45462,4.643656 22.38297,8.360308 13.79401,13.050669 -7.36498,4.021955 -11.7442,5.089825 -32.57813,7.944152 -1.93359,0.264909 -3.56558,0.120935 -3.62664,-0.319943 z m 3.60712,-0.899252 c -0.31153,-0.311522 -1.12013,-0.344829 -1.79688,-0.07402 -0.74787,0.299274 -0.52573,0.521421 0.56641,0.566406 0.98827,0.04071 1.54199,-0.18087 1.23047,-0.492393 z M 225.24486,80.625 c 4.07914,-2.18629 5.70744,-2.417471 3.09158,-0.438935 -2.16971,1.641087 -0.95885,1.815018 5.36261,0.770292 3.37313,-0.557465 3.4517,-0.649314 1.64063,-1.917841 -2.10941,-1.477483 -2.66844,-8.043288 -0.90261,-10.601016 0.722,-1.045772 0.86356,-0.495172 0.55225,2.147922 -1.06712,9.060091 2.21539,10.639433 12.22251,5.880712 8.61459,-4.096523 8.41973,-4.583167 -3.36315,-8.399085 -17.75013,-5.748428 -36.19178,-7.406947 -56.07147,-5.042693 l -10.50404,1.249226 -4.02721,-3.553146 c -4.50885,-3.978094 -11.78275,-7.75092 -16.58279,-8.60116 l -3.18058,-0.563384 4.11808,4.028758 c 5.02105,4.912147 10.61332,11.91535 9.51476,11.91535 -0.44161,0 -1.30918,-0.50625 -1.92793,-1.125 -0.875,-0.875 -1.125,-0.786817 -1.125,0.39682 0,0.837001 -1.09219,2.819814 -2.42708,4.40625 -3.04809,3.622444 -2.1562,3.614565 5.67508,-0.05013 8.05697,-3.770315 12.35334,-3.363944 24.75045,2.34102 8.40022,3.86566 14.96221,6.234766 20.82962,7.520218 1.48847,0.326101 3.823,-0.183785 6.0576,-1.32305 3.82503,-1.950117 8.44809,-2.517999 7.45808,-0.91613 -0.31868,0.515625 -1.29279,0.956528 -2.16471,0.979785 -3.0978,0.08263 -7.63951,2.604067 -4.85266,2.694072 1.2967,0.04188 3.93189,-0.767607 5.85598,-1.798857 z M 240.625,75.3125 c -1.29053,-1.290529 -0.55674,-3.125 1.25,-3.125 1.25,0 1.875,0.625 1.875,1.875 0,1.806741 -1.83447,2.540528 -3.125,1.25 z m -46.5625,-6.875 c -13.64517,-3.37476 -11.11388,-3.574375 4.49241,-0.354268 8.88642,1.833572 13.58144,2.337992 18.47634,1.98505 3.60937,-0.26025 7.61719,-0.142881 8.90625,0.260818 7.57436,2.372087 -21.64728,0.637949 -31.875,-1.8916 z m -20.16406,-3.966551 c -1.02696,-0.557381 -3.49582,-2.465171 -5.48635,-4.239532 -1.99054,-1.774361 -5.04913,-3.823591 -6.79688,-4.553845 -1.74774,-0.730254 -3.17771,-1.538672 -3.17771,-1.796485 0,-1.114529 6.81093,2.521681 11.15479,5.955311 2.60263,2.057255 5.27079,3.9326 5.92925,4.167435 0.65847,0.234833 0.98276,0.664023 0.72065,0.953753 -0.26211,0.289731 -1.31679,0.07074 -2.34375,-0.486637 z M 185.625,75.029423 c 0,-0.499442 -0.63281,-0.665244 -1.40625,-0.368447 -0.77344,0.296795 -1.40625,0.70543 -1.40625,0.908076 0,0.202646 0.63281,0.368448 1.40625,0.368448 0.77344,0 1.40625,-0.408635 1.40625,-0.908077 z m 4.33237,-1.14703 c -4.95306,-2.77187 -10.06776,-3.4595 -11.92416,-1.603103 -2.45034,2.450348 -0.34719,3.320398 4.31054,1.78321 3.45819,-1.141306 6.61978,-0.672085 5.68313,0.843448 -0.29121,0.471181 0.36297,0.623317 1.45371,0.33808 1.71534,-0.44857 1.77972,-0.63247 0.47679,-1.361635 z m 32.88417,-13.415516 c -0.10191,-0.03297 -1.00455,-0.678846 -2.00588,-1.435284 -1.1384,-0.859995 -1.55677,-0.936236 -1.11654,-0.203468 0.84283,1.402896 -1.07662,1.487678 -6.43787,0.284363 -9.1079,-2.044237 -22.63291,-2.301989 -20.92557,-0.398787 1.40789,1.569403 3.11333,1.75812 16.12279,1.784082 8.00159,0.01597 14.46497,0.0021 14.36307,-0.03091 z M 413.4375,74.239703 c -4.51216,-0.705064 -5.03748,-4.783845 -1.09126,-8.472944 l 2.65874,-2.485509 -2.7877,-0.206752 c -1.53324,-0.113715 -6.74324,-1.903415 -11.57778,-3.977113 -13.072,-5.607021 -21.00904,-7.447186 -22.30356,-5.170978 -2.70545,4.757135 -10.25523,8.923702 -8.66618,4.782691 0.3975,-1.035865 -0.18464,-1.132893 -2.94657,-0.491116 -7.55544,1.755621 -9.2619,-0.287754 -2.427,-2.906179 7.92047,-3.034306 8.02323,-3.902094 0.39131,-3.30432 -13.91421,1.089835 -15.06899,1.422204 -19.63648,5.65175 -6.69959,6.203885 -27.23852,12.210391 -27.23852,7.965767 0,-0.515625 0.92311,-0.9375 2.05136,-0.9375 3.435,0 7.91735,-3.845437 10.4125,-8.932943 l 2.36661,-4.825436 -2.68269,-1.584705 c -1.47548,-0.871588 -3.55798,-2.813941 -4.62779,-4.31634 -2.82167,-3.962674 -11.61957,-8.764677 -15.11744,-8.251296 -2.54084,0.372916 -2.66755,0.27393 -1.34378,-1.049841 5.20256,-5.202561 26.31659,-1.711279 35.59448,5.885678 l 3.8155,3.124221 8.90625,-3.744037 c 4.89844,-2.059221 10.85899,-4.390617 13.24566,-5.180879 l 4.33941,-1.43684 -2.69077,-2.26414 c -3.70649,-3.118802 -2.33115,-6.662725 1.78225,-4.592442 5.52757,2.782035 10.9797,2.617672 10.9797,-0.331 0,-3.79073 18.29727,-3.027011 31.64144,1.320697 7.14942,2.329379 19.67235,2.717192 18.52519,0.573693 -2.31276,-4.321428 0.26554,-5.129365 4.39047,-1.375801 l 2.6304,2.393591 -3.1103,-1.512962 c -3.0037,-1.46111 -3.07731,-1.451336 -2.14794,0.285204 0.71992,1.345192 2.33002,1.924294 6.39155,2.298851 2.98606,0.275378 7.96044,1.6359 11.05419,3.023385 3.09375,1.387484 6.37588,2.67711 7.29362,2.865832 0.91774,0.188723 4.47367,3.107118 7.90208,6.485321 3.42841,3.378205 6.57987,6.142189 7.00326,6.142189 0.90893,0 1.01596,2.955143 0.18542,5.119508 -1.75189,4.56534 -17.93553,8.993815 -34.57188,9.460215 l -12.1875,0.341677 -2.8125,3.138472 c -4.8644,5.428178 -8.69522,7.257769 -13.59375,6.492331 z m 9.23434,-4.870583 c 2.13986,-1.550109 3.90303,-3.132141 3.91814,-3.515625 0.0471,-1.194161 5.70126,-6.999747 6.26661,-6.434399 0.29458,0.294576 0.002,1.178601 -0.65028,1.964498 -1.01362,1.221328 -0.79469,1.445785 1.50703,1.545093 1.4811,0.0639 4.29901,0.219926 6.26201,0.346719 2.99507,0.193453 3.45665,-0.01371 2.86991,-1.288063 -1.72495,-3.746503 -0.258,-10.02147 4.14558,-17.732817 3.38148,-5.921507 3.47925,-4.219592 0.16451,2.863834 -4.05778,8.671279 -4.21669,14.042856 -0.4366,14.758187 7.19605,1.361757 20.72778,-2.510575 25.52026,-7.303056 l 3.35696,-3.356962 -3.65736,-3.135613 C 459.17842,37.141055 452.80144,34.22322 438.40543,32.737562 c -10.55742,-1.08952 -12.31941,-0.749667 -4.81746,0.929196 2.83912,0.635366 5.16203,1.54683 5.16203,2.025476 0,1.100312 0.26402,1.119454 -6.7387,-0.488586 -13.64828,-3.134066 -30.26459,-2.661227 -42.72116,1.215689 -4.77462,1.48603 -5.631,1.529262 -6.74162,0.34033 -1.84672,-1.97691 -8.45789,-0.936101 -16.92352,2.664301 -11.01178,4.68327 -21.5625,8.283242 -21.5625,7.357261 0,-0.464051 0.52734,-0.86129 1.17187,-0.882754 7.57138,-0.252136 -13.0542,-9.853241 -22.73437,-10.582738 -3.86719,-0.291431 -6.1875,-0.312921 -5.15625,-0.04776 1.84212,0.473666 24.93876,9.795632 25.70313,10.373966 2.59773,1.965489 -2.92448,0.422578 -12.14412,-3.393083 -13.45557,-5.568744 -15.11859,-5.929042 -6.05901,-1.312697 6.68726,3.407522 15.01942,9.513156 14.15795,10.37464 -0.26185,0.26184 -2.49981,-0.983885 -4.97326,-2.768277 -5.97591,-4.311122 -6.84094,-4.767903 -6.84094,-3.612371 0,0.538074 2.74219,2.710164 6.09375,4.826868 7.18161,4.535596 6.94679,3.730146 2.62509,9.004205 l -3.46865,4.233037 3.70303,-1.541511 c 2.03666,-0.847831 5.48546,-3.286539 7.664,-5.41935 2.17852,-2.132812 4.70977,-3.975207 5.625,-4.094211 27.68408,-3.5997 33.55382,-2.983994 52.07031,5.461907 9.02851,4.118164 14.08594,4.862122 21.31247,3.135111 4.04627,-0.966984 2.83961,0.497647 -1.875,2.27586 -4.85755,1.832128 -9.375,5.46928 -9.375,7.548135 0,3.031431 6.33682,2.466109 11.10934,-0.99109 z M 412.5,70.443228 c 0,-1.203296 13.85883,-9.505728 15.86743,-9.505728 1.74115,0 -3.44158,5.463647 -7.40184,7.803026 -3.29375,1.945669 -3.84687,0.685161 -0.73122,-1.666376 2.42003,-1.826511 -0.62554,-0.200836 -5.39062,2.877422 -1.39173,0.89906 -2.34375,1.098769 -2.34375,0.491656 z m 40.4203,-17.791833 c -1.68465,-2.365875 -1.77048,-2.910528 -0.61034,-3.873355 2.95329,-2.451007 7.59794,1.181312 5.58701,4.369286 -1.61489,2.560132 -2.89111,2.432954 -4.97667,-0.495931 z M 400.78125,51.0989 c -3.60938,-0.677535 -9.07691,-1.905086 -12.15009,-2.727891 -3.55215,-0.951046 -9.69935,-1.520012 -16.875,-1.561901 -7.17941,-0.04191 -10.60501,-0.359129 -9.41241,-0.871608 4.2475,-1.825213 20.314,-1.028944 29.06909,1.440688 12.66255,3.571849 24.23415,4.089829 30.90262,1.383296 7.07065,-2.869767 7.57968,-1.859193 0.63366,1.257996 -6.26555,2.811811 -11.56451,3.069833 -22.16787,1.07942 z m -65.62085,6.488557 2.90556,-3.080779 -2.27913,-1.038439 c -1.25352,-0.571142 -2.38075,-0.917176 -2.50495,-0.768965 -0.1242,0.148212 -1.26208,2.459973 -2.52863,5.137248 -2.68262,5.670668 -1.09104,5.580722 4.40715,-0.249065 z m 39.80308,-1.514233 c 4.07001,-4.368649 0.58239,-5.41869 -5.36273,-1.614591 -3.24628,2.077202 -3.77702,2.681546 -1.96865,2.241673 1.41757,-0.344812 2.74358,-0.169034 3.1022,0.411231 0.941,1.522557 2.11098,1.235313 4.22918,-1.038313 z m 14.13151,-21.29943 c 2.81807,-0.983788 9.34251,-2.302868 14.49876,-2.931291 12.60791,-1.5366 13.28028,-2.171392 4.34479,-4.102019 -10.04189,-2.169677 -22.65773,-1.345414 -21.93118,1.432886 0.5992,2.291379 -7.75611,2.523966 -11.99142,0.333805 -1.52127,-0.786679 -2.76594,-1.046137 -2.76594,-0.576572 0,1.277989 4.91665,4.257733 6.79687,4.119256 0.90235,-0.06646 1.64063,0.274826 1.64063,0.758406 0,0.483579 0.84375,0.879235 1.875,0.879235 1.03125,0 1.875,0.421875 1.875,0.9375 0,1.191553 -0.34094,1.24285 5.65749,-0.851206 z M 49.271037,33.834602 c -0.859067,-1.389999 0.451147,-3.719259 2.448721,-4.353264 2.661101,-0.844601 1.951741,-1.136455 -4.381766,-1.802805 C 44.247409,27.353372 38.765625,26.192368 35.15625,25.098524 30.948825,23.823438 26.659223,23.199489 23.203125,23.359868 19.778857,23.518771 17.8125,23.236579 17.8125,22.586259 c 0,-0.563067 0.809246,-1.023759 1.798325,-1.023759 0.989077,0 2.534847,-0.28263 3.435041,-0.628068 1.115894,-0.428208 1.421011,-0.279046 0.958848,0.46875 C 23.59384,22.067991 23.924316,22.5 24.84375,22.5 c 2.313593,0 0.778025,-1.67807 -3.579233,-3.911388 -2.156422,-1.105277 -3.40968,-2.183673 -2.785019,-2.396435 0.624662,-0.212764 3.577787,1.022956 6.5625,2.746044 10.14721,5.858029 18.824154,7.684226 33.88107,7.1308 l 7.829319,-0.287771 0.29207,-3.921562 c 0.160638,-2.156858 0.683086,-4.62027 1.160997,-5.474248 0.581434,-1.038965 0.725158,0.180975 0.434395,3.687187 -0.363941,4.388655 -0.187226,5.239873 1.08781,5.239873 1.710625,0 2.039171,-1.444925 0.539318,-2.371885 -0.670989,-0.414694 -0.631506,-1.031095 0.124385,-1.941889 0.844469,-1.017521 1.414519,-1.079469 2.400835,-0.2609 0.978277,0.811898 1.034213,1.385776 0.229571,2.355311 C 72.43665,23.798161 72.247771,24.375 72.602038,24.375 74.113167,24.375 82.5,20.323635 82.5,19.593665 82.5,17.137149 67.856663,11.9685 66.610336,13.9851 c -0.428973,0.694093 -1.581064,0.696577 -3.845766,0.0083 -3.742194,-1.137318 -20.300112,-1.337026 -31.158805,-0.375812 -5.246864,0.464454 -7.289635,0.361125 -6.852236,-0.346602 0.443275,-0.717234 -0.194862,-0.723157 -2.210465,-0.02051 -2.526468,0.880732 -3.317568,0.642609 -7.29773,-2.196635 C 7.8096636,5.7496043 2.3798814,4.2861817 7.6075904,8.9953241 11.240305,12.267689 11.557972,14.806281 8.6672729,17.463635 L 6.09375,19.829417 9.7678922,19.322926 c 2.0207788,-0.278571 4.0017458,-1.036565 4.4021508,-1.684433 0.400404,-0.647868 1.039228,-0.866722 1.419607,-0.486343 1.371873,1.371872 -1.547982,2.828518 -8.1856194,4.08361 C 0.17079547,22.603471 -1.4956128,22.402151 2.0290815,20.586407 9.3775313,16.800858 10.222293,14.454749 6.1028495,9.2725599 2.4615378,4.6918516 2.0057284,3.2684354 4.453125,4.1207483 5.8207469,4.5970267 5.7909304,4.4577153 4.273941,3.2835503 3.273046,2.5088477 1.9019523,1.875 1.227066,1.875 0.55217968,1.875 0,1.453125 0,0.9375 0,-0.93083638 2.0090772,0.05266038 12.895818,7.2503458 20.201356,12.080348 20.80596,12.307576 23.677068,11.302277 25.349992,10.716514 32.115987,9.9772022 38.712611,9.6593625 52.117467,9.0134868 53.146325,8.0461434 41.411746,7.1216068 35.201363,6.6323072 33.748418,6.7519004 34.307272,7.7063818 34.693663,8.3663093 34.093534,8.1025834 32.973651,7.1203241 31.853768,6.138065 30.9375,5.1571748 30.9375,4.9405684 c 0,-1.1686068 17.709862,1.0980596 20.625,2.6397719 1.804687,0.9544345 5.478962,2.1098528 8.165055,2.5675957 l 4.883805,0.83226 -1.83693,-2.3352782 C 57.892497,2.438546 62.205345,2.196808 68.727995,8.3112166 71.40416,10.819885 75.070312,13.352122 76.875,13.938407 c 5.393904,1.752307 9.222958,5.31539 7.5,6.979041 -2.201086,2.125319 -13.561052,6.270052 -17.185086,6.270052 -2.401116,0 -4.53376,0.997725 -8.015649,3.75 -4.494884,3.553001 -8.731821,4.792479 -9.903228,2.897102 z M 57.1875,30.46875 c 1.90985,-1.409043 2.588972,-2.34375 1.702879,-2.34375 -2.277187,0 -8.265379,2.725957 -8.265379,3.762581 0,1.682517 3.336653,0.961123 6.5625,-1.418831 z M 32.127217,11.572559 c -0.634718,-0.256803 -1.900343,-0.272435 -2.812499,-0.03473 -0.912158,0.237693 -0.392843,0.447805 1.154032,0.46691 1.546875,0.01911 2.293185,-0.175373 1.658467,-0.432176 z M 67.909773,9.2943221 C 66.395335,7.7030743 64.386036,5.983641 63.444662,5.4733591 c -3.102486,-1.6817368 0.05416,2.8383557 3.412046,4.8858029 4.080869,2.488283 4.261165,2.305971 1.053065,-1.0648399 z M 38.664244,18.34007 c -6.320605,-1.157934 -11.80498,-2.420774 -12.1875,-2.806313 -0.382522,-0.385537 0.781068,-0.453134 2.585756,-0.150213 21.843256,3.666447 30.356367,4.322589 32.197363,2.481593 1.187689,-1.187689 2.490137,-1.293928 2.490137,-0.20312 0,3.349898 -9.151254,3.59725 -25.085756,0.678053 z"
     id="path4210"
     inkscape:connector-curvature="0" />
</svg>
